<svg width="512" height="512">
  <g transform="translate(0,-540.3622)">
    <path
       style="fill:#222c37;fill-opacity:1;stroke:#222c37;stroke-width:1px;stroke-linecap:butt;stroke-linejoin:miter;stroke-opacity:1"
       d="m 437.14286,9.8571423 53.57143,195.7142877 -28.57143,50 30,52.85714 -53.57143,194.28572 -197.85714,-50 -27.85715,-52.85715 -60.71428,0.71429 L 10,257.71429 152.85714,111.28571 l 59.28572,1.42858 30,-50.71429 z"
       transform="translate(0,540.3622)" />
    <path
       style="fill:#ffffff;fill-opacity:1;stroke:#ffffff;stroke-width:1px;stroke-linecap:butt;stroke-linejoin:miter;stroke-opacity:1"
       d="m 365.71429,84.142857 -148.57143,37.142853 -106.42857,110 170,0 z"
       transform="translate(0,540.3622)" />
    <path
       style="fill:#ffffff;fill-opacity:1;stroke:#ffffff;stroke-width:1px;stroke-linecap:butt;stroke-linejoin:miter;stroke-opacity:1"
       d="M 409.28571,109.14286 450,255.57143 l -41.42857,147.85714 -85,-147.14286 z"
       transform="translate(0,540.3622)" />
    <path
       style="fill:#ffffff;fill-opacity:1;stroke:#ffffff;stroke-width:1px;stroke-linecap:butt;stroke-linejoin:miter;stroke-opacity:1"
       d="M 110.71429,281.28571 281.42857,282.71429 364.28571,427 215.71429,391.28571 z"
       transform="translate(0,540.3622)" />
  </g>
</svg>
