<?xml version="1.0" encoding="UTF-8" standalone="no"?>
<!-- Created with Inkscape (http://www.inkscape.org/) -->

<svg
   xmlns:dc="http://purl.org/dc/elements/1.1/"
   xmlns:cc="http://creativecommons.org/ns#"
   xmlns:rdf="http://www.w3.org/1999/02/22-rdf-syntax-ns#"
   xmlns:svg="http://www.w3.org/2000/svg"
   xmlns="http://www.w3.org/2000/svg"
   xmlns:sodipodi="http://sodipodi.sourceforge.net/DTD/sodipodi-0.dtd"
   xmlns:inkscape="http://www.inkscape.org/namespaces/inkscape"
   width="512"
   height="512"
   id="svg2"
   version="1.1"
   inkscape:version="0.48.4 r9939"
   sodipodi:docname="icon.svg">
  <defs
     id="defs4" />
  <sodipodi:namedview
     id="base"
     pagecolor="#ffffff"
     bordercolor="#666666"
     borderopacity="1.0"
     inkscape:pageopacity="0.0"
     inkscape:pageshadow="2"
     inkscape:zoom="1.4"
     inkscape:cx="186.08538"
     inkscape:cy="248.02288"
     inkscape:document-units="px"
     inkscape:current-layer="layer1"
     showgrid="false"
     width="512px"
     fit-margin-top="0"
     fit-margin-left="0"
     fit-margin-right="0"
     fit-margin-bottom="0"
     inkscape:window-width="1920"
     inkscape:window-height="1020"
     inkscape:window-x="0"
     inkscape:window-y="0"
     inkscape:window-maximized="1" />
  <metadata
     id="metadata7">
    <rdf:RDF>
      <cc:Work
         rdf:about="">
        <dc:format>image/svg+xml</dc:format>
        <dc:type
           rdf:resource="http://purl.org/dc/dcmitype/StillImage" />
        <dc:title></dc:title>
        <cc:license
           rdf:resource="" />
      </cc:Work>
    </rdf:RDF>
  </metadata>
  <g
     inkscape:label="Ebene 1"
     inkscape:groupmode="layer"
     id="layer1"
     transform="translate(0,-540.3622)">
    <path
       style="fill:none;stroke:#000000;stroke-width:1px;stroke-linecap:butt;stroke-linejoin:miter;stroke-opacity:1"
       d="m 437.14286,9.8571423 53.57143,195.7142877 -28.57143,50 30,52.85714 -53.57143,194.28572 -197.85714,-50 -27.85715,-52.85715 -60.71428,0.71429 L 10,257.71429 152.85714,111.28571 l 59.28572,1.42858 30,-50.71429 z"
       id="path2996"
       inkscape:connector-curvature="0"
       transform="translate(0,540.3622)" />
    <path
       style="fill:none;stroke:#000000;stroke-width:1px;stroke-linecap:butt;stroke-linejoin:miter;stroke-opacity:1"
       d="m 365.71429,84.142857 -148.57143,37.142853 -106.42857,110 170,0 z"
       id="path2998"
       inkscape:connector-curvature="0"
       transform="translate(0,540.3622)" />
    <path
       style="fill:none;stroke:#000000;stroke-width:1px;stroke-linecap:butt;stroke-linejoin:miter;stroke-opacity:1"
       d="M 409.28571,109.14286 450,255.57143 l -41.42857,147.85714 -85,-147.14286 z"
       id="path3000"
       inkscape:connector-curvature="0"
       transform="translate(0,540.3622)" />
    <path
       style="fill:none;stroke:#000000;stroke-width:1px;stroke-linecap:butt;stroke-linejoin:miter;stroke-opacity:1"
       d="M 110.71429,281.28571 281.42857,282.71429 364.28571,427 215.71429,391.28571 z"
       id="path3023"
       inkscape:connector-curvature="0"
       transform="translate(0,540.3622)" />
    <path
       style="fill:#ffffff;fill-opacity:1"
       d="m 287.77518,407.78566 c -67.72041,-16.36007 -71.77622,-17.42753 -73.64395,-19.38249 -1.08712,-1.1379 -22.16268,-23.28319 -46.83458,-49.21176 -24.6719,-25.92858 -46.97856,-49.34198 -49.57035,-52.02979 l -4.71234,-4.88693 74.28572,0.43229 c 40.85714,0.23776 78.67527,0.62324 84.04027,0.85664 l 9.75458,0.42434 40.24542,70.03863 c 22.135,38.52124 40.35258,70.30809 40.48353,70.63744 0.13096,0.32934 -0.35118,0.562 -1.07143,0.51701 -0.72023,-0.045 -33.55982,-7.87291 -72.97687,-17.39538 z"
       id="path3029"
       inkscape:connector-curvature="0"
       transform="translate(0,540.3622)" />
    <path
       style="fill:#ffffff;fill-opacity:1"
       d="m 116.71226,226.51283 c 2.00723,-2.0625 25.55198,-26.41071 52.32168,-54.10714 l 48.67217,-50.35714 71.93964,-18.0231 c 39.5668,-9.912701 72.34968,-17.948415 72.85085,-17.857141 0.53963,0.09828 -16.04522,29.513071 -40.66895,72.130241 l -41.58016,71.96428 -83.59236,0 -83.59237,0 3.6495,-3.75 z"
       id="path3031"
       inkscape:connector-curvature="0"
       transform="translate(0,540.3622)" />
    <path
       style="fill:#ffffff;fill-opacity:1"
       d="m 366.58539,328.9935 c -22.78571,-39.49359 -41.42857,-72.20905 -41.42857,-72.70102 0,-0.49197 18.80357,-33.2017 41.78571,-72.68828 30.18407,-51.86053 41.9337,-71.46326 42.31869,-70.6033 0.29313,0.65478 9.36738,32.99417 20.165,71.86533 l 19.63203,70.67482 -19.9897,71.46803 c -10.99434,39.30743 -20.2293,71.99069 -20.52215,72.62949 -0.37928,0.82736 -12.44934,-19.49365 -41.96101,-70.64507 l 0,0 z"
       id="path3033"
       inkscape:connector-curvature="0"
       transform="translate(0,540.3622)" />
    <path
       style="fill:#ffffff;fill-opacity:1"
       d="m 340.15682,477.01828 c -53.42857,-13.51189 -97.583,-24.82692 -98.12095,-25.14452 -0.53796,-0.3176 -7.1747,-12.30105 -14.74832,-26.6299 l -13.77022,-26.05245 -30.60883,0.23545 -30.60882,0.23544 -70.465683,-70.99598 -70.465683,-70.99599 70.655597,-72.45375 70.655589,-72.45375 13.38152,0 c 7.35983,0 20.88279,0.1545 30.05102,0.34332 l 16.66951,0.34331 14.98346,-25.346833 14.98346,-25.346826 96.85006,-25.89821 c 53.26755,-14.244017 96.90385,-25.813863 96.96957,-25.71077 0.0657,0.103093 12.05534,43.851935 26.64358,97.219649 l 26.52406,97.03221 -14.25375,24.92005 c -7.83956,13.70603 -14.25374,25.0633 -14.25374,25.23839 0,0.17509 6.7329,12.17375 14.962,26.66369 l 14.96201,26.34535 -26.56915,96.55251 c -14.61303,53.10388 -26.72986,96.53319 -26.92629,96.50959 -0.19643,-0.0236 -44.07143,-11.0981 -97.5,-24.60998 z m 25.16315,-49.79116 c -0.52192,-1.34354 -82.70264,-144.39317 -83.25587,-144.92109 -0.481,-0.459 -172.40632,-2.1394 -172.85622,-1.6895 -0.13217,0.13218 23.65227,25.26095 52.85431,55.84173 l 53.09463,55.6014 74.28571,17.94935 c 40.85715,9.87215 74.72189,17.98572 75.255,18.03016 0.5331,0.0444 0.8132,-0.32098 0.62244,-0.81205 l 0,0 z m 64.82778,-97.32143 c 11.20105,-40.07143 20.36569,-73.51708 20.36588,-74.32366 3.2e-4,-1.42859 -39.43905,-144.3359 -40.57738,-147.03085 -0.44821,-1.06111 -9.97927,14.79235 -44.00146,73.18967 -32.54864,55.86805 -43.26472,74.81878 -42.77234,75.64022 0.36133,0.60283 19.74822,34.15999 43.08196,74.57149 32.6921,56.61914 42.55263,73.16972 42.98139,72.14285 0.30603,-0.73292 9.7209,-34.11829 20.92195,-74.18972 z M 324.18816,157.87044 c 23.5678,-40.79796 42.71082,-74.317827 42.54004,-74.488606 -0.17077,-0.170771 -34.04805,8.137943 -75.28282,18.463826 l -74.97233,18.77432 -53.51526,55.27559 c -29.43339,30.40158 -53.62283,55.55466 -53.75431,55.89574 -0.1346,0.34916 37.42028,0.54085 85.94755,0.43868 l 86.1866,-0.18144 42.85053,-74.17811 z"
       id="path3035"
       inkscape:connector-curvature="0"
       transform="translate(0,540.3622)" />
    <path
       style="fill:#ffffff;fill-opacity:1"
       d="m 366.58539,328.9935 c -22.78571,-39.49359 -41.42857,-72.20905 -41.42857,-72.70102 0,-0.49197 18.80357,-33.2017 41.78571,-72.68828 30.18407,-51.86053 41.9337,-71.46326 42.31869,-70.6033 0.29313,0.65478 9.36738,32.99417 20.165,71.86533 l 19.63203,70.67482 -19.9897,71.46803 c -10.99434,39.30743 -20.2293,71.99069 -20.52215,72.62949 -0.37928,0.82736 -12.44934,-19.49365 -41.96101,-70.64507 l 0,0 z"
       id="path3037"
       inkscape:connector-curvature="0"
       transform="translate(0,540.3622)" />
    <path
       style="fill:#222c37;fill-opacity:1"
       d="m 340.15681,477.02222 c -53.42857,-13.51305 -97.583,-24.82945 -98.12095,-25.14755 -0.53795,-0.31809 -7.1746,-12.30196 -14.74811,-26.63081 l -13.77001,-26.05245 -30.60904,0.24399 -30.60903,0.244 -70.46972,-71.01117 -70.469728,-71.01116 70.826871,-72.67929 70.826867,-72.67928 26.42857,0.43477 c 14.53571,0.23912 27.91081,0.60871 29.72243,0.82129 l 3.29387,0.38652 15.15626,-25.600303 15.15625,-25.600305 96.84019,-25.888988 c 53.2621,-14.238944 96.89326,-25.805341 96.95813,-25.703105 0.0649,0.102236 12.06218,43.881088 26.66069,97.286341 l 26.54274,97.10045 -14.34523,25.00128 c -13.90519,24.23433 -14.313,25.05731 -13.29407,26.82811 0.57814,1.00477 7.34305,12.9376 15.03312,26.5174 l 13.98195,24.69055 -17.80619,64.59516 c -9.79341,35.52734 -21.74876,78.97601 -26.56746,96.55259 -4.81869,17.57659 -8.92197,31.93802 -9.1184,31.9143 -0.19642,-0.0237 -44.07142,-11.09928 -97.5,-24.61234 z m 25.35715,-49.29485 c 0,-0.48883 -82.8196,-144.79219 -83.4619,-145.42249 -0.44772,-0.43935 -172.38735,-2.14151 -172.82045,-1.71088 -0.2194,0.21816 7.7369,8.60332 69.17063,72.89896 l 36.86967,38.58727 66.37102,15.94434 c 36.50406,8.76939 69.90674,16.84907 74.22817,17.95485 8.35297,2.13738 9.64286,2.37119 9.64286,1.74795 l 0,0 z m 54.23798,-60.67882 c 25.39936,-90.92009 30.76202,-110.36804 30.76202,-111.56003 0,-1.69935 -40.04954,-146.12832 -40.73324,-146.89456 -0.71234,-0.79835 -16.29575,25.50178 -69.8877,117.94953 -16.47839,28.42574 -16.90233,29.2607 -16.02497,31.56142 0.62854,1.64823 64.48403,112.43124 78.58736,136.34136 3.32685,5.64018 6.2898,9.97946 6.58435,9.64286 0.29454,-0.3366 5.11503,-17.00487 10.71218,-37.04058 z M 302.78262,194.90569 c 46.58528,-80.59897 64.17163,-111.297799 63.9092,-111.560234 -0.15077,-0.150765 -33.994,8.174321 -75.20718,18.500204 l -74.93307,18.77432 -23.55452,24.30108 c -70.25759,72.48442 -83.81295,86.63097 -83.40322,87.0407 0.24732,0.24732 38.98564,0.36802 86.08516,0.26822 l 85.6355,-0.18143 21.46813,-37.14286 z"
       id="path2991"
       inkscape:connector-curvature="0"
       transform="translate(0,540.3622)" />
  </g>
</svg>
