<?xml version="1.0" encoding="UTF-8" standalone="no"?>
<svg xmlns:rdf="http://www.w3.org/1999/02/22-rdf-syntax-ns#" xmlns="http://www.w3.org/2000/svg" height="48px" width="48px" xmlns:cc="http://creativecommons.org/ns#" xmlns:xlink="http://www.w3.org/1999/xlink" xmlns:dc="http://purl.org/dc/elements/1.1/">
 <defs>
  <radialGradient id="d" xlink:href="#b" gradientUnits="userSpaceOnUse" cy="486.65" cx="605.71" gradientTransform="matrix(-2.7744 0 0 1.9697 112.76 -872.89)" r="117.14"/>
  <linearGradient id="b">
   <stop offset="0"/>
   <stop stop-opacity="0" offset="1"/>
  </linearGradient>
  <radialGradient id="e" xlink:href="#b" gradientUnits="userSpaceOnUse" cy="486.65" cx="605.71" gradientTransform="matrix(2.7744 0 0 1.9697 -1891.6 -872.89)" r="117.14"/>
  <linearGradient id="j" y2="609.51" gradientUnits="userSpaceOnUse" x2="302.86" gradientTransform="matrix(2.7744 0 0 1.9697 -1892.2 -872.89)" y1="366.65" x1="302.86">
   <stop stop-opacity="0" offset="0"/>
   <stop offset=".5"/>
   <stop stop-opacity="0" offset="1"/>
  </linearGradient>
  <linearGradient id="c">
   <stop stop-color="#aaa" offset="0"/>
   <stop stop-color="#cdcdcd" offset="1"/>
  </linearGradient>
  <linearGradient id="a">
   <stop stop-color="#ff8a2b" offset="0"/>
   <stop stop-color="#833a00" offset="1"/>
  </linearGradient>
  <radialGradient id="h" gradientUnits="userSpaceOnUse" cy="32.709" cx="10.364" gradientTransform="matrix(1 0 0 .62428 0 12.289)" r="3.8228">
   <stop offset="0"/>
   <stop stop-opacity="0" offset="1"/>
  </radialGradient>
  <linearGradient id="r" y2="28.359" gradientUnits="userSpaceOnUse" x2="24.237" y1="31.712" x1="24.237">
   <stop stop-color="#fff" offset="0"/>
   <stop stop-color="#fff" stop-opacity="0" offset="1"/>
  </linearGradient>
  <linearGradient id="q" y2="13.095" xlink:href="#a" gradientUnits="userSpaceOnUse" x2="26.033" y1="3.4934" x1="23.599"/>
  <linearGradient id="p" y2="-6.4607" xlink:href="#a" gradientUnits="userSpaceOnUse" x2="17.766" y1="11.51" x1="24.395"/>
  <linearGradient id="o" y2="29.562" gradientUnits="userSpaceOnUse" x2="26.286" y1="2.4375" x1="21.058">
   <stop stop-color="#fff" offset="0"/>
   <stop stop-color="#fff" stop-opacity="0" offset="1"/>
  </linearGradient>
  <linearGradient id="n" y2="17.5" xlink:href="#c" gradientUnits="userSpaceOnUse" x2="23.062" gradientTransform="translate(0 -0.625)" y1="17.5" x1="26.312"/>
  <linearGradient id="m" y2="26.375" xlink:href="#c" gradientUnits="userSpaceOnUse" x2="20" gradientTransform="translate(0 -0.625)" y1="28.125" x1="28.469"/>
  <linearGradient id="l" y2="47.621" gradientUnits="userSpaceOnUse" x2="44.096" gradientTransform="translate(0 8.0555)" y1="4.4331" x1="12.378">
   <stop stop-color="#fff" offset="0"/>
   <stop stop-color="#fff" stop-opacity="0" offset="1"/>
  </linearGradient>
  <radialGradient id="g" gradientUnits="userSpaceOnUse" cy="2.9585" cx="15.571" gradientTransform="matrix(1.2862 .78170 -.71078 1.1696 -2.3543 3.1786)" r="20.936">
   <stop stop-color="#e4e4e4" offset="0"/>
   <stop stop-color="#d3d3d3" offset="1"/>
  </radialGradient>
  <linearGradient id="k" y2="40.944" gradientUnits="userSpaceOnUse" x2="36.183" gradientTransform="translate(0 8.0555)" y1="28.481" x1="7.6046">
   <stop stop-color="#bbb" offset="0"/>
   <stop stop-color="#9f9f9f" offset="1"/>
  </linearGradient>
  <radialGradient id="f" xlink:href="#a" gradientUnits="userSpaceOnUse" cy="4.9366" cx="22.694" gradientTransform="matrix(2.3856 1.1078e-15 -1.1078e-15 2.3856 -30.844 -6.0896)" r="6.6291"/>
 </defs>
 <g transform="matrix(.023542 0 0 .020868 45.314 40.279)">
  <rect opacity=".40206" style="color:black" height="478.36" width="1339.6" y="-150.7" x="-1559.3" fill="url(#j)"/>
  <path opacity=".40206" style="color:black" d="m-219.62-150.68v478.33c142.88 0.9 345.4-107.17 345.4-239.2 0-132.02-159.44-239.13-345.4-239.13z" fill="url(#e)"/>
  <path opacity=".40206" style="color:black" d="m-1559.3-150.68v478.33c-142.8 0.9-345.4-107.17-345.4-239.2 0-132.02 159.5-239.13 345.4-239.13z" fill="url(#d)"/>
 </g>
 <path stroke-linejoin="round" d="m9.2857 22.018c-0.625 0-1.0313 0.29-1.2813 0.844l-4.4687 11.103s-0.25 0.672-0.25 1.782v5.65c0 1.082 0.6578 1.625 1.6562 1.625h38.562c0.985 0 1.594-0.719 1.594-1.844v-5.65s0.106-0.771-0.094-1.313l-4.718-11.197c-0.185-0.512-0.637-0.988-1.125-1h-29.875z" stroke="#535353" stroke-linecap="round" stroke-width="2" fill="none"/>
 <path d="m3.2736 35.052l0.7646-0.692 37.61 0.063 3.462 0.317v6.438c0 1.126-0.607 1.844-1.592 1.844h-38.583c-0.998 0-1.6614-0.542-1.6614-1.625v-6.345z" fill-rule="evenodd" fill="url(#k)"/>
 <path style="color:#000000" d="m24.562 19.75c-2.624 0-4.709 1.052-4.874 2.375h-0.063l-1.281 5.187c-0.219 1.094 2.078 3.032 6.218 3.032 4.172 0 6.563-1.969 6.157-3.438l-1.188-4.781h-0.062c-0.164-1.324-2.281-2.375-4.907-2.375z" stroke="#666" stroke-width="2" fill="none"/>
 <path d="m3.5491 33.97c-0.7143 1.464-0.0006 2.393 1.0357 2.393h39c1.119-0.024 1.845-1.012 1.428-2.143l-4.714-11.211c-0.184-0.512-0.655-0.988-1.143-1h-29.857c-0.6249 0-1.0356 0.304-1.2856 0.857l-4.4643 11.104z" fill-rule="evenodd" fill="url(#g)"/>
 <path style="color:#000000" d="m14.186 32.709a3.8228 2.3865 0 1 1 -7.6453 0 3.8228 2.3865 0 1 1 7.6453 0z" fill-rule="evenodd" transform="translate(.15468 .28726)" fill="url(#h)"/>
 <path d="m44.796 33.684c0.064 1.25-0.414 2.316-1.322 2.344h-38.119c-1.2889 0-1.8674-0.325-2.0837-0.868 0.0917 0.944 0.8258 1.649 2.084 1.649h38.119c1.076-0.033 1.753-1.424 1.352-2.995l-0.03-0.13z" fill-rule="evenodd" fill="#fff"/>
 <path stroke-linejoin="round" d="m9.6425 22.471c-0.6017 0-0.9928 0.28-1.2335 0.812l-4.415 10.591s-0.2406 0.647-0.2406 1.715v5.29c0 1.355 0.444 1.627 1.5944 1.627h37.687c1.323 0 1.534-0.316 1.534-1.837v-5.291s0.102-0.741-0.09-1.263l-4.593-10.806c-0.178-0.493-0.551-0.826-1.021-0.838h-29.222z" stroke="url(#l)" stroke-linecap="round" fill="none"/>
 <path style="color:#000000" d="m31.82 28.378a7.2478 3.7123 0 1 1 -14.496 0 7.2478 3.7123 0 1 1 14.496 0z" fill-rule="evenodd" fill-opacity=".48023" transform="matrix(1.5813 0 0 1.5813 -14.284 -16.591)" fill="#fff"/>
 <path style="color:#000000" d="m31.82 28.378a7.2478 3.7123 0 1 1 -14.496 0 7.2478 3.7123 0 1 1 14.496 0z" fill-rule="evenodd" transform="matrix(.85366 0 0 .85366 3.5959 2.9332)" fill="#c9c9c9"/>
 <path style="color:#000000" d="m24.562 1.3438c-3.659 0-6.624 2.9657-6.624 6.625 0 2.6072 1.559 4.7922 3.75 5.8752v8.468 0.063c0 0.814 1.285 1.469 2.874 1.469 1.59 0 2.876-0.655 2.876-1.469v-0.063-8.437c2.21-1.075 3.75-3.284 3.75-5.9062 0-3.6593-2.966-6.625-6.626-6.625z" stroke="#666" stroke-width="2" fill="none"/>
 <path style="color:#000000" d="m29.531 22.125l1.188 4.781c0.406 1.469-1.985 3.438-6.157 3.438-4.14 0-6.437-1.938-6.218-3.032l1.281-5.187h9.906z" fill-rule="evenodd" fill="url(#m)"/>
 <path id="i" style="color:#000000" d="m31.82 28.378a7.2478 3.7123 0 1 1 -14.496 0 7.2478 3.7123 0 1 1 14.496 0z" fill-rule="evenodd" transform="matrix(.68293 0 0 .68293 7.7911 2.9032)" fill="#e4e4e4"/>
 <path xlink:href="#i" stroke="url(#r)" stroke-width="1.0778px" fill="none" style="color:#000000" transform="matrix(.63364 0 0 .63364 9.1239 4.1769)" d="m24.562 24.656c-4 0-7.25 1.67-7.25 3.719s3.25 3.719 7.25 3.719c4.001 0 7.25-1.67 7.25-3.719s-3.249-3.719-7.25-3.719z"/>
 <path style="color:#000000" d="m24.562 6.2812c-1.589 0-2.874 0.6548-2.874 1.4688 0 0.0269 0.059 0.036 0.062 0.0625h-0.062v13.876h0.062c-0.003 0.026-0.062 0.035-0.062 0.062 0 0.814 1.285 1.469 2.874 1.469 1.59 0 2.876-0.655 2.876-1.469 0-0.027-0.06-0.036-0.063-0.062h0.063v-13.876l-0.063 0.0005c0.003-0.0265 0.063-0.0356 0.063-0.0625 0-0.814-1.286-1.4688-2.876-1.4688z" fill-rule="evenodd" fill="url(#n)"/>
 <path style="color:#000000" d="m31.024 8.402a6.6291 6.6291 0 1 1 -13.258 0 6.6291 6.6291 0 1 1 13.258 0z" fill-rule="evenodd" transform="matrix(.96758 0 0 .96758 .96773 -.16866)" fill="url(#f)"/>
 <g fill-rule="evenodd" transform="matrix(1 0 0 .84966 .81066 5.2242)">
  <path style="color:#000000" d="m31.024 8.402a6.6291 6.6291 0 1 1 -13.258 0 6.6291 6.6291 0 1 1 13.258 0z" transform="matrix(.51033 0 0 .35475 -2.8777 29.417)" fill="url(#q)"/>
  <path style="color:#000000" d="m31.024 8.402a6.6291 6.6291 0 1 1 -13.258 0 6.6291 6.6291 0 1 1 13.258 0z" transform="matrix(.43019 0 0 .29904 -.92267 29.604)" fill="url(#p)"/>
 </g>
 <path opacity=".52571" style="color:#000000" d="m24.564 2.0719c-3.285 0-5.944 2.6876-5.944 5.9725 0 2.3126 1.66 4.2626 3.589 5.2476v7.122c-0.867 0.395-2.153 1.043-2.168 1.682l-1.247 5.145c-0.203 1.015 1.929 2.812 5.77 2.812 3.87 0 6.088-1.826 5.711-3.189l-1.218-4.855c-0.015-0.684-1.225-1.112-2.201-1.508v-7.209c1.929-0.985 3.68-2.935 3.68-5.2476 0-3.2849-2.688-5.9725-5.972-5.9725z" stroke="url(#o)" stroke-width="1px" fill="none"/>
</svg>
